<svg xmlns="http://www.w3.org/2000/svg" height="1024" preserveAspectRatio="none" style="display: block;" version="1.1" viewBox="0 0 2048 2048" width="1024">
<path d="M 1001.74 196.402 C 1065.12 185.507 1141.54 229.726 1158.76 293.212 C 1165.57 293.392 1172.33 293.183 1179.21 293.287 C 1219.31 293.891 1262.65 284.894 1289.28 323.117 C 1298.36 336.138 1300.53 345.843 1302.16 360.999 L 1385.92 360.944 C 1402.9 360.934 1423.94 360.412 1440.55 361.995 C 1490.77 366.689 1537.85 388.479 1573.93 423.722 C 1615.98 464.436 1637.14 518.824 1637.06 576.904 C 1637.84 601.319 1635.34 621.447 1617.26 639.723 C 1584.84 672.485 1521.96 658.554 1512.19 611.437 C 1510.62 602.263 1510.62 591.85 1510.79 582.499 C 1511.31 554.548 1503.62 533.295 1483.81 512.98 C 1452.48 480.85 1414.84 484.852 1373.69 484.882 L 1301.21 484.896 C 1299.95 571.633 1231.18 636.271 1145.01 637.987 C 1099.01 638.903 1052.78 637.955 1006.75 638.044 L 928.297 638.224 C 904.655 638.227 875.445 639.754 852.914 633.87 C 780.142 614.865 734.763 558.06 732.797 483.938 L 670.902 484.012 C 618.357 484.145 570.16 484.715 537.266 533.08 C 524.943 551.199 524.312 565.6 524.108 586.789 L 523.971 1276.24 L 523.842 1488.78 L 523.761 1552.8 C 523.751 1564.87 523.302 1582.78 524.694 1594.36 C 526.759 1612.17 534.817 1628.74 547.546 1641.36 C 584.696 1678.68 630.344 1673.56 678.33 1673.69 L 810.337 1673.69 L 1279.5 1673.84 C 1325.17 1673.77 1372.11 1674.18 1417.46 1673 C 1449.38 1671.41 1476.17 1660.33 1496.43 1635.33 C 1518.01 1608.68 1512.38 1572.94 1512.34 1539.86 C 1512.22 1500.28 1512.37 1460.69 1512.8 1421.11 C 1512.99 1394.23 1507.52 1367.71 1527.1 1346.14 C 1538.93 1333.33 1555.4 1325.79 1572.84 1325.22 C 1610.69 1323.75 1639.52 1356.88 1639.03 1393.77 C 1638.15 1459.42 1640.02 1525.3 1638.42 1590.93 C 1637.62 1623.89 1627.24 1659.36 1611.17 1688 C 1601.76 1705.04 1590.1 1720.73 1576.5 1734.65 C 1532.42 1779.4 1480.13 1801.37 1417.44 1801.9 L 847.242 1802.17 L 684.485 1801.98 C 652.042 1801.97 601.275 1803.76 571.239 1798.12 C 529.201 1789.9 490.542 1769.41 460.151 1739.22 C 429.88 1709.06 409.205 1670.62 400.731 1628.74 C 394.446 1598.9 395.878 1565.11 395.832 1534.4 L 395.689 1432.58 L 395.247 1039.25 L 395.736 731.705 L 395.72 632.127 C 395.782 600.665 394.341 567.794 401.364 537.16 C 410.931 496.02 431.8 458.37 461.62 428.455 C 498.67 391.333 547.297 367.994 599.436 362.309 C 617.65 360.436 639.498 360.897 658.071 360.883 L 732.72 361.014 C 733.095 342.405 739.095 326.239 752.517 313.134 C 774.836 291.343 799.793 293.19 828.557 293.154 L 874.56 293.159 C 891.196 235.223 944.092 202.454 1001.74 196.402 z" fill="rgb(79,70,229)" transform="translate(0,0)"></path>
<path d="M 853.33 420.956 L 1179.3 420.957 C 1179.18 436.389 1179.58 451.943 1179.5 467.384 C 1179.41 483.312 1180.43 491.339 1169.35 503.877 C 1159.87 511.23 1152.27 513.518 1140.15 513.708 C 1122.02 513.993 1103.71 513.59 1085.55 513.571 L 980.666 513.662 L 922.237 513.788 C 890.922 513.867 854.299 517.146 853.307 474.903 C 852.886 457.001 853.308 438.846 853.33 420.956 z" fill="rgb(254,254,254)" transform="translate(0,0)"></path>
<path d="M 1428.06 706.076 C 1582.66 697.204 1715.15 815.422 1723.87 970.032 C 1732.59 1124.64 1614.25 1257.01 1459.63 1265.59 C 1305.22 1274.15 1173.07 1156 1164.36 1001.6 C 1155.65 847.202 1273.67 714.937 1428.06 706.076 z" fill="rgb(79,70,229)" transform="translate(0,0)"></path>
<path d="M 1568.09 880.274 C 1577.33 879.818 1586.17 881.619 1593.86 886.943 C 1601.76 892.369 1607.03 900.85 1608.39 910.333 C 1609.52 917.885 1607.72 930.429 1602.91 936.308 C 1600.94 938.691 1598.91 941.023 1596.82 943.301 C 1569.56 972.731 1537.68 1000.26 1509.8 1029.29 C 1492.76 1047.03 1475.02 1064.38 1457.35 1081.48 C 1450.87 1087.76 1444.3 1094.33 1437.19 1099.85 C 1411.07 1115.26 1394.44 1092.24 1379.71 1077.61 L 1346.92 1045.36 C 1333.06 1031.23 1305.67 1009.58 1304.54 990.976 C 1303.96 982.042 1307 973.251 1312.96 966.572 C 1319.32 959.438 1328.11 955.505 1337.62 955.128 C 1344.31 954.8 1350.95 956.487 1356.67 959.971 C 1365.59 965.351 1406.97 1006.68 1417.8 1017.02 C 1453 981.933 1489.47 947.852 1524.17 912.172 C 1536.22 899.778 1550.52 883.017 1568.09 880.274 z" fill="rgb(254,254,254)" transform="translate(0,0)"></path>
<path d="M 778.495 1367.49 L 1135.5 1367.19 L 1238.53 1367.46 C 1257.2 1367.49 1278.19 1366.58 1296.64 1368.63 C 1348.3 1374.38 1365.89 1440.11 1331.04 1475.61 C 1309.81 1497.22 1284.72 1495.3 1256.84 1495.24 L 901.778 1495.14 L 797.512 1495.06 C 778.339 1495.04 759.513 1495.65 740.235 1493.93 C 687.869 1489.27 665.258 1423.2 701.848 1386.3 C 723.304 1364.66 750.184 1367.55 778.495 1367.49 z" fill="rgb(79,70,229)" transform="translate(0,0)"></path>
<path d="M 745.728 1083.38 C 760.122 1081.4 787.692 1082.87 802.795 1082.9 L 904.61 1082.86 L 984.209 1082.94 C 1013.11 1082.99 1038.44 1079.81 1061.57 1100.7 C 1074.59 1112.48 1082.31 1129.02 1083 1146.56 C 1084.55 1184.84 1057.51 1211.86 1019.75 1213.35 C 1003.98 1214.24 981.061 1213.38 964.788 1213.42 L 851.473 1213.7 L 780.839 1213.72 C 753.731 1213.72 732.302 1217.13 709.872 1199.31 C 660.827 1160.36 684.482 1090.19 745.728 1083.38 z" fill="rgb(79,70,229)" transform="translate(0,0)"></path>
<path d="M 745.719 807.408 C 757.206 806.328 782.928 807.048 795.361 807.058 L 892.2 807.117 L 979.562 807.021 C 1007.37 806.965 1036.12 802.344 1058.98 820.585 C 1072.49 831.405 1081.11 847.186 1082.91 864.405 C 1084.76 881.056 1079.73 897.74 1068.98 910.594 C 1056.14 926.126 1039.94 932.819 1020.24 934.707 C 1002.26 935.57 979.621 935.101 961.282 935.159 L 844.099 935.187 C 824.382 935.142 804.666 935.215 784.95 935.406 C 769.317 935.544 751.711 936.418 736.446 933.978 C 712.053 930.257 687.062 907.838 683.721 882.561 C 678.187 840.693 705.484 811.021 745.719 807.408 z" fill="rgb(79,70,229)" transform="translate(0,0)"></path>
<metadata><recraft-signature>{"signed_by": "recraft", "signature_b64": "A8Ngdo/sNhFA9KUk5LAn0FchcdesJkW8RKdiax4v7oTaZD1uMwqBTDPTC3l5mpAkh102MA14l+l55aQY5bHdDA==", "signing_algo": "Ed25519", "generation_timestamp": 1784675929, "identifier": "e8193d05-5620-4cb8-b5a2-9b06c00a0cdd"}</recraft-signature></metadata></svg>