<svg xmlns="http://www.w3.org/2000/svg" height="1024" preserveAspectRatio="none" style="display: block;" version="1.1" viewBox="0 0 2048 2048" width="1024">
<path d="M 877.928 480.268 C 878.206 425.4 869.293 376.355 911.49 334.058 C 932.091 313.408 959.295 302.81 988.38 302.754 C 1016.71 302.682 1043.87 314.01 1063.75 334.186 C 1095.07 365.618 1097.23 391.412 1097.15 432.263 L 1097.24 480.974 C 1134.85 481.384 1173.05 480.996 1210.7 480.941 L 1210.43 434.673 C 1210.17 394.857 1212.08 366.646 1242.86 335.733 C 1263.31 315.211 1291.13 303.738 1320.09 303.88 C 1349.65 303.924 1377.18 314.792 1398.15 335.842 C 1437.93 375.758 1430.09 428.506 1429.96 481.097 C 1477.84 483.473 1527.79 479.202 1575.88 481.337 C 1609.41 482.825 1639.49 498.943 1661.85 523.539 C 1677.31 540.239 1688.24 560.616 1693.6 582.733 C 1698.71 604.455 1697.39 650.655 1697.48 675.059 L 1697.04 841.834 L 1697.12 985.744 C 1697.12 995.02 1697.46 1004.84 1697.09 1014.05 C 1696.29 1033.41 1703.68 1073.33 1673.29 1073.12 C 1666.9 1073.02 1660.81 1070.37 1656.38 1065.76 C 1652.98 1062.2 1651.06 1057.58 1650.74 1052.75 C 1649.35 1031.42 1649.95 1008.31 1649.93 986.905 L 1649.43 859.935 C 1635.02 860.582 1617.41 860.14 1602.63 860.185 L 1504.64 860.299 L 1211.08 860.638 L 330.913 859.919 L 331.1 1357.49 L 331.002 1503.84 C 330.981 1530.9 330.327 1560.14 332.163 1586.59 C 334.359 1618.23 359.819 1647.45 389.718 1656.78 C 409.607 1662.98 443.667 1660.98 466.001 1660.95 L 536.461 1660.84 L 876.475 1660.82 L 991.43 1660.98 C 1008.01 1661.01 1025.15 1660.75 1041.72 1660.91 C 1047.34 1660.97 1054.78 1663.82 1059.19 1667.56 C 1064.35 1671.9 1067.46 1678.19 1067.78 1684.92 C 1068.61 1701.09 1055.65 1708.95 1041.01 1709.41 C 1019.45 1710.1 997.781 1709.75 976.196 1709.68 L 853.561 1709.47 L 437.157 1709.6 C 386.678 1709.66 358.385 1706.34 320.528 1669.25 C 275.127 1624.78 282.17 1578.15 282.167 1520.95 L 282.057 1377.66 L 281.952 843.35 L 281.912 672.48 C 281.901 613.97 275.718 564.552 321.917 520.257 C 366.887 477.141 406.654 479.812 462.967 479.546 L 544.396 479.477 C 545.914 424.586 534.302 378.439 575.564 336.066 C 595.696 315.503 623.148 303.743 651.923 303.355 C 683.175 302.988 707.584 312.672 730.107 334.29 C 771.713 374.222 764.088 426.51 763.992 480.378 L 877.928 480.268 z" fill="rgb(79,70,229)" transform="translate(0,0)"></path>
<path d="M 1430 527.093 C 1431 527.038 1432 527.002 1433 526.985 C 1470.23 526.339 1507.79 527.267 1545.06 526.838 C 1558.71 526.681 1577.77 525.939 1590.81 529.175 C 1604.2 532.476 1616.44 539.34 1626.24 549.038 C 1641.75 564.377 1648.38 583.683 1649.02 605.255 C 1649.62 625.402 1649.67 645.616 1649.81 665.772 L 1650.02 811.316 L 330.83 811.093 L 330.91 674.933 C 330.894 654.126 330.746 633.275 330.988 612.466 C 331.26 589.033 337.076 568.889 354.036 552.045 C 365.227 540.988 379.182 533.138 394.443 529.316 C 408.833 525.828 440.191 526.95 456.373 526.981 L 544.616 527.223 L 544.734 574.701 C 544.741 584.165 544.413 594.13 545.21 603.526 C 549.958 659.5 596.419 700.852 651.749 702.242 C 681.041 703.205 709.443 692.09 730.3 671.501 C 772.078 630.839 763.003 581.035 763.66 527.466 C 802.104 527.088 840.551 527.208 878.992 527.826 C 878.829 578.638 870.892 631.292 910.446 670.476 C 953.2 712.83 1020.93 712.827 1063.77 670.513 C 1104.02 630.746 1096.08 578.863 1095.95 527.229 C 1133.71 526.941 1172.82 526.869 1210.56 527.333 C 1210.56 580.933 1201.88 629.676 1243.98 671.372 C 1287.31 714.296 1356.06 712.203 1398.95 669.79 C 1437.89 631.275 1430.07 577.411 1430 527.093 z" fill="rgb(255,255,255)" transform="translate(0,0)"></path>
<path d="M 977.934 351.268 C 1008.99 348.609 1037.36 363.535 1047.88 395.056 C 1051.6 406.191 1050.55 433.557 1050.63 446.266 L 1050.81 513.24 L 1050.84 567.356 C 1050.83 611.803 1049.89 647.161 997.244 657.747 C 982.843 659.058 968.398 655.751 956.001 648.307 C 919.56 626.304 923.964 594.122 923.942 557.292 L 923.938 485.872 L 923.976 434.195 C 923.999 414.055 922.047 395.698 933.952 377.985 C 944.65 362.068 959.647 354.843 977.934 351.268 z" fill="rgb(255,255,255)" transform="translate(0,0)"></path>
<path d="M 649.668 349.385 C 663.253 348.264 677.89 352.841 689.103 360.561 C 718.631 380.891 715.511 410.839 715.447 442.869 L 715.424 497.148 L 715.606 562.574 C 715.578 586.673 718.224 611.534 702.959 631.533 C 690.469 647.897 678.468 653.054 658.849 656.163 C 623.878 659.439 593.757 636.121 590.462 600.425 C 589.427 589.201 589.891 577.397 589.859 566.092 L 589.74 504.651 L 589.782 439.143 C 589.827 416.279 587.249 392.233 602.852 373.059 C 615.201 357.884 630.515 351.564 649.668 349.385 z" fill="rgb(255,255,255)" transform="translate(0,0)"></path>
<path d="M 1310.87 351.248 C 1347.68 347.531 1382.94 372.762 1382.91 411.479 C 1382.51 474.196 1384.5 537.255 1383.04 599.903 C 1382.38 628.668 1357.55 648.925 1331.56 655.268 C 1297.83 659.278 1265.19 641.313 1259.07 607.368 C 1254.99 584.66 1256.98 549.247 1256.8 525.634 C 1256.52 499.487 1256.48 473.338 1256.69 447.191 C 1256.79 433.499 1256.39 419.272 1257.89 405.682 C 1261.06 376.978 1283.43 356.836 1310.87 351.248 z" fill="rgb(255,255,255)" transform="translate(0,0)"></path>
<path d="M 1594.93 1373.56 L 1595.9 1375 C 1644.11 1376.59 1696.52 1375.44 1744.99 1375.19 L 1744.94 1499.28 L 1645.61 1499.43 C 1634.73 1499.45 1605.61 1500.08 1596.16 1499.02 C 1595.26 1506.1 1595.77 1513.66 1595.69 1520.84 C 1595.36 1550.5 1596.47 1580.53 1595.38 1610.15 C 1645.24 1609.89 1695.09 1609.96 1744.95 1610.36 C 1745.09 1636.87 1745.18 1654.53 1734.29 1679.46 C 1711.75 1731.03 1667.93 1758.79 1612.27 1759.11 C 1606.57 1759.13 1600.87 1759.09 1595.17 1758.99 C 1595.06 1710.36 1594.14 1659.53 1594.91 1611.12 C 1558.96 1611.31 1523.01 1611.29 1487.06 1611.06 L 1487.73 1758.98 L 1364.39 1759.2 L 1364.14 1660.71 C 1364.08 1647.23 1364.66 1625.25 1363.8 1612.37 L 1363.88 1611.08 L 1365.16 1609.96 C 1366.59 1576.04 1365.2 1533.53 1365.03 1499.17 C 1401.43 1499.79 1451.27 1500.77 1487.08 1499.2 C 1487.62 1457.58 1487.19 1415.55 1488.04 1374.09 C 1516.1 1372.48 1550.89 1373.13 1579.23 1373.29 C 1583.95 1372.84 1590.2 1373.16 1594.93 1373.56 z" fill="rgb(79,70,229)" transform="translate(0,0)"></path>
<path d="M 1594.93 1373.56 L 1595.9 1375 L 1595.14 1375.51 C 1593.69 1409.65 1595.61 1444.78 1594.93 1479.01 C 1594.81 1485.4 1594.82 1492.44 1595.07 1498.82 C 1561.21 1500.14 1521.55 1499.14 1487.08 1499.2 C 1487.62 1457.58 1487.19 1415.55 1488.04 1374.09 C 1516.1 1372.48 1550.89 1373.13 1579.23 1373.29 C 1583.95 1372.84 1590.2 1373.16 1594.93 1373.56 z" fill="rgb(255,255,255)" transform="translate(0,0)"></path>
<path d="M 1594.93 1373.56 L 1595.9 1375 L 1595.14 1375.51 C 1590.57 1372.25 1583.23 1375.87 1579.23 1373.29 C 1583.95 1372.84 1590.2 1373.16 1594.93 1373.56 z" fill="rgb(206,203,238)" transform="translate(0,0)"></path>
<path d="M 1365.03 1499.17 C 1401.43 1499.79 1451.27 1500.77 1487.08 1499.2 L 1487.09 1610.21 L 1415.07 1610.07 C 1404.56 1610.07 1388.78 1609.59 1378.59 1610.22 C 1374.18 1610.1 1369.45 1610.24 1365.16 1609.96 C 1366.59 1576.04 1365.2 1533.53 1365.03 1499.17 z" fill="rgb(255,255,255)" transform="translate(0,0)"></path>
<path d="M 1365.16 1609.96 C 1369.45 1610.24 1374.18 1610.1 1378.59 1610.22 C 1371.38 1612.13 1369.21 1610.19 1363.8 1612.37 L 1363.88 1611.08 L 1365.16 1609.96 z" fill="rgb(124,58,237)" transform="translate(0,0)"></path>
<path d="M 1364.44 1113.47 C 1405.37 1113.91 1446.3 1114.07 1487.24 1113.95 C 1487.4 1128.9 1487.38 1143.85 1487.15 1158.8 C 1485.09 1182.15 1487.61 1212.61 1486.73 1236.44 C 1486.44 1244.48 1487.19 1254.43 1486.42 1262.4 L 1486.75 1262.75 C 1486.73 1299.32 1486.2 1337.43 1486.92 1373.88 C 1447.05 1374.11 1404.84 1374.85 1365.07 1374.26 C 1328.68 1373.82 1292.3 1374.04 1255.92 1374.92 C 1255.89 1337.09 1254.93 1299.52 1255.39 1261.63 C 1207.13 1261.82 1158.88 1261.76 1110.62 1261.47 C 1109.95 1214.48 1110.25 1184.24 1147.11 1149.11 C 1181.49 1116.34 1211.18 1113.83 1256.01 1114.8 L 1256.2 1260.93 C 1292 1261.4 1328.58 1261.04 1364.44 1261.07 C 1363.49 1214.55 1363.97 1160.19 1364.44 1113.47 z" fill="rgb(79,70,229)" transform="translate(0,0)"></path>
<path d="M 1365.08 1261.87 C 1403.47 1261.87 1448.46 1260.79 1486.42 1262.4 L 1486.75 1262.75 C 1486.73 1299.32 1486.2 1337.43 1486.92 1373.88 C 1447.05 1374.11 1404.84 1374.85 1365.07 1374.26 C 1365.93 1337.73 1365.16 1298.6 1365.08 1261.87 z" fill="rgb(255,255,255)" transform="translate(0,0)"></path>
<path d="M 1365.07 1374.26 C 1364.75 1412.59 1363.57 1461.45 1365.03 1499.17 C 1365.2 1533.53 1366.59 1576.04 1365.16 1609.96 L 1363.88 1611.08 L 1256.7 1610.61 L 1256.89 1759.14 C 1211.63 1759.23 1179.23 1753.15 1146.51 1719.21 C 1113.07 1684.5 1110.6 1654.2 1110.59 1609.11 C 1157.34 1610.55 1208.61 1609.52 1255.88 1609.95 C 1255.6 1586.83 1255.44 1563.7 1255.4 1540.58 C 1255.38 1529.01 1255.87 1511.99 1254.82 1500.84 C 1252.67 1499.09 1249.45 1499.5 1246.44 1499.41 C 1241.7 1500.22 1214.29 1499.89 1208.33 1499.89 L 1110.47 1499.21 C 1110.11 1475.3 1109.95 1451.39 1110 1427.47 C 1109.97 1410.61 1109.56 1391.88 1110.84 1375.22 C 1156.39 1376.48 1209.95 1375.22 1255.92 1374.92 C 1292.3 1374.04 1328.68 1373.82 1365.07 1374.26 z" fill="rgb(79,70,229)" transform="translate(0,0)"></path>
<path d="M 1365.07 1374.26 C 1364.75 1412.59 1363.57 1461.45 1365.03 1499.17 C 1331.06 1497.54 1290.74 1500.92 1257.11 1498.7 C 1255.32 1496.01 1255.88 1494.21 1255.65 1490.43 C 1256.48 1483.86 1255.99 1460.24 1256 1452.88 L 1255.92 1374.92 C 1292.3 1374.04 1328.68 1373.82 1365.07 1374.26 z" fill="rgb(255,255,255)" transform="translate(0,0)"></path>
<path d="M 1595.06 1114.01 C 1616.78 1113.89 1638.57 1112.89 1659.2 1120.65 C 1713.43 1141.06 1744.9 1188 1745.07 1244.88 C 1745.08 1250.52 1745.05 1256.16 1744.99 1261.8 L 1595.34 1261.92 C 1595.24 1296.17 1596.49 1340.06 1594.93 1373.56 C 1590.2 1373.16 1583.95 1372.84 1579.23 1373.29 C 1550.89 1373.13 1516.1 1372.48 1488.04 1374.09 C 1487.19 1415.55 1487.62 1457.58 1487.08 1499.2 C 1451.27 1500.77 1401.43 1499.79 1365.03 1499.17 C 1363.57 1461.45 1364.75 1412.59 1365.07 1374.26 C 1404.84 1374.85 1447.05 1374.11 1486.92 1373.88 C 1486.2 1337.43 1486.73 1299.32 1486.75 1262.75 L 1486.42 1262.4 C 1487.19 1254.43 1486.44 1244.48 1486.73 1236.44 C 1487.61 1212.61 1485.09 1182.15 1487.15 1158.8 C 1488.89 1187.18 1488 1231.68 1487.66 1260.94 C 1511.04 1261.16 1534.42 1261.23 1557.8 1261.15 C 1565.47 1261.14 1588.03 1260.65 1595.03 1261.65 L 1595.06 1114.01 z" fill="rgb(79,70,229)" transform="translate(0,0)"></path>
<path d="M 1487.15 1158.8 C 1488.89 1187.18 1488 1231.68 1487.66 1260.94 C 1511.04 1261.16 1534.42 1261.23 1557.8 1261.15 C 1565.47 1261.14 1588.03 1260.65 1595.03 1261.65 C 1577.92 1264.26 1493.38 1259.72 1486.75 1262.75 L 1486.42 1262.4 C 1487.19 1254.43 1486.44 1244.48 1486.73 1236.44 C 1487.61 1212.61 1485.09 1182.15 1487.15 1158.8 z" fill="rgb(124,58,237)" transform="translate(0,0)"></path>
<metadata><recraft-signature>{"signed_by": "recraft", "signature_b64": "hEFO+zajs3CWYuEQc5FHV0dzMUnnmmzFaIqRHxQO6TZBwSFy0rSA2jZ1i260gqOJzVLxaMAZyyv+lBcPzG/RDQ==", "signing_algo": "Ed25519", "generation_timestamp": 1784675605, "identifier": "d8ecb803-3199-4e53-a132-f5e36184a04f"}</recraft-signature></metadata></svg>