<svg xmlns="http://www.w3.org/2000/svg" height="1024" preserveAspectRatio="none" style="display: block;" version="1.1" viewBox="0 0 2048 2048" width="1024">
<path d="M 1742.05 502.385 C 1807.18 492.679 1873.79 553.106 1871.98 618.278 C 1871.48 636.347 1868 656.501 1865.39 674.453 L 1848.33 784.738 C 1840.21 836.411 1832.4 888.135 1824.93 939.906 C 1821.39 962.834 1817.3 994.404 1812.56 1016.56 C 1810.66 1025.54 1807.51 1034.21 1803.2 1042.31 C 1790.53 1066.49 1758.84 1093.77 1738.42 1113.64 C 1721.38 1130.29 1704.43 1147.04 1687.57 1163.88 L 1465.63 1384.44 L 1195.38 1656.05 C 1173 1678.5 1149.51 1688.73 1117.46 1689.2 C 1099.39 1689.47 1071.31 1681.27 1056.74 1671.19 C 1037.65 1657.98 1015.18 1632.39 997.483 1615.9 C 976.534 1596.38 955.16 1576.48 935.13 1556.29 L 818.314 1442.23 C 806.476 1430.7 795.061 1418.64 783.189 1407.23 L 726.43 1351.94 C 697.1 1323.61 675.519 1308.17 669.978 1265.23 C 663.843 1217.68 689.515 1192.25 721.883 1162.54 C 730.155 1154.95 739.108 1145.89 747.113 1137.94 L 897.056 990.096 L 1196.24 693.033 C 1233.35 656.58 1269.66 619.245 1307.1 583.098 C 1339.2 552.104 1366.8 552.341 1408.27 547.018 L 1473.14 538.587 C 1562.64 525.524 1652.28 513.456 1742.05 502.385 z" fill="rgb(79,70,229)" transform="translate(0,0)"></path>
<path d="M 1746.65 560.388 C 1762.95 557.019 1783.45 564.383 1795.42 575.604 C 1823.91 602.288 1814.73 630.96 1809.76 664.803 C 1804.62 700.002 1799.18 735.157 1793.44 770.264 L 1770.92 918.684 C 1768.92 931.878 1759.54 1004.55 1753.3 1013.16 C 1734.19 1039.51 1699.35 1070.25 1675.15 1094.5 C 1612.24 1157.99 1548.93 1221.09 1485.24 1283.79 C 1377.55 1390.87 1270.45 1498.54 1163.94 1606.79 C 1150.09 1620.83 1140.65 1631.11 1119.02 1631.35 C 1084.65 1631.73 1058.7 1593.77 1035.34 1572.01 C 1004.78 1543.55 974.895 1513.47 945.503 1484 L 791.239 1333.18 C 774.469 1316.59 754.249 1299.84 738.775 1282.42 C 707.162 1246.82 746.805 1218.33 770.572 1194.75 L 851.424 1115.22 L 1220.19 750.129 C 1236.91 733.574 1353.68 614.726 1364.56 612.232 C 1396.64 604.878 1431.06 603.465 1463.72 598.723 L 1746.65 560.388 z" fill="rgb(255,255,255)" transform="translate(0,0)"></path>
<path d="M 1497.42 712.544 C 1572.39 704.583 1639.57 759.005 1647.35 833.992 C 1655.13 908.979 1600.55 976.033 1525.54 983.631 C 1450.79 991.204 1384.02 936.847 1376.26 862.115 C 1368.51 787.384 1422.71 720.477 1497.42 712.544 z" fill="rgb(79,70,229)" transform="translate(0,0)"></path>
<path d="M 1502.52 766.255 C 1546.77 760.628 1587.12 792.13 1592.4 836.416 C 1597.68 880.702 1565.86 920.806 1521.53 925.736 C 1477.7 930.611 1438.13 899.221 1432.91 855.425 C 1427.69 811.629 1458.77 771.819 1502.52 766.255 z" fill="rgb(255,255,255)" transform="translate(0,0)"></path>
<path d="M 982.704 533.707 C 988.285 530.416 1009.02 508.778 1014.4 503.333 L 1078.13 439.305 C 1091.81 425.582 1110.63 405.418 1125.99 394.569 C 1139.46 384.912 1154.63 377.866 1170.7 373.798 C 1185.17 370.162 1204.21 368.349 1219.5 366.135 C 1243.95 362.516 1268.37 358.654 1292.75 354.55 L 1453.09 328.797 C 1480.51 324.432 1507.12 319.51 1534.97 315.85 C 1600.18 307.282 1662.13 355.4 1662.01 422.765 C 1661.99 437.757 1658.11 454.865 1655.46 469.808 C 1637.38 471.106 1618.72 473.425 1600.66 475.432 L 1598.93 475.739 C 1585.22 478.121 1569.5 478.68 1555.95 480.929 C 1521.16 486.699 1485.72 489.603 1451.02 494.79 C 1408.35 501.169 1355.73 501.676 1317.14 520.181 C 1306.33 525.365 1291.34 536.36 1282.9 544.572 C 1234.52 591.645 1186.44 639.404 1138.53 686.946 L 874.121 948.24 L 724.743 1095.45 L 681.753 1137.21 C 669.71 1148.9 656.405 1161.02 646.563 1174.6 C 624.733 1204.72 615.643 1239.13 622.011 1275.96 C 629.768 1320.83 656.138 1348.39 687.047 1378.8 L 737.418 1428.08 L 843.491 1531.27 C 856.069 1543.45 869.006 1557.16 881.652 1568.9 C 894.794 1580.74 909.111 1595.66 922.333 1608.1 C 905.943 1623.97 889.66 1639.95 873.484 1656.03 C 842.74 1686.39 822.077 1711.62 774.837 1712.3 C 738.139 1712.82 715.885 1698.65 690.496 1674.34 C 601.978 1587.85 514.04 1500.77 426.69 1413.11 L 362.993 1350.57 C 331.582 1319.68 307.55 1299.72 306.506 1251.82 C 305.176 1190.79 341.006 1171.17 379.337 1131.84 C 412.782 1097.53 449.026 1064.19 482.641 1029.64 C 481.378 1028.76 480.139 1027.84 478.925 1026.89 C 471.239 1020.89 460.901 1009.61 453.597 1003.21 C 429.204 981.836 404.005 953.691 401.717 919.327 C 400.266 897.539 405.052 858.451 407.004 834.647 L 420.768 664.96 L 427.413 576.162 C 428.659 559.86 429.135 542.147 432.306 526.384 C 445.301 461.804 505.639 421.948 570.23 433.33 C 600.261 438.621 629.39 444.026 659.002 449.859 C 701.763 458.393 744.575 466.67 787.435 474.689 L 876.472 491.772 C 927.741 501.527 941.555 500.242 982.704 533.707 z" fill="rgb(124,58,237)" transform="translate(0,0)"></path>
<path d="M 482.641 1029.64 C 481.378 1028.76 480.139 1027.84 478.925 1026.89 C 471.239 1020.89 460.901 1009.61 453.597 1003.21 C 429.204 981.836 404.005 953.691 401.717 919.327 C 400.266 897.539 405.052 858.451 407.004 834.647 L 420.768 664.96 L 427.413 576.162 C 428.659 559.86 429.135 542.147 432.306 526.384 C 445.301 461.804 505.639 421.948 570.23 433.33 C 600.261 438.621 629.39 444.026 659.002 449.859 C 701.763 458.393 744.575 466.67 787.435 474.689 L 876.472 491.772 C 927.741 501.527 941.555 500.242 982.704 533.707 C 970.981 542.497 951.539 563.48 941.729 575.142 C 933.867 584.749 921.59 596.28 912.591 605.121 L 867.477 649.248 C 862.219 654.353 837.031 679.196 832.877 682.066 C 822.602 689.502 802.195 711.211 792.381 721.228 C 776.895 739.701 752.22 762.273 734.793 779.801 C 725.462 789.188 692.255 822.68 683.004 828.539 C 671.782 839.029 655.311 856.087 644.886 867.512 C 636.744 879.835 534.226 981.672 522.787 989.228 C 512.199 997.999 491.885 1018.99 482.641 1029.64 z" fill="rgb(79,70,229)" transform="translate(0,0)"></path>
<path d="M 683.004 828.539 C 674.076 818.76 669.169 805.04 667.678 792.051 C 659.83 723.683 737.376 677.658 792.381 721.228 C 776.895 739.701 752.22 762.273 734.793 779.801 C 725.462 789.188 692.255 822.68 683.004 828.539 z" fill="rgb(255,255,255)" transform="translate(0,0)"></path>
<metadata><recraft-signature>{"signed_by": "recraft", "signature_b64": "L5quKYoVadCmD4CAlk7Xvlzjwe1WU+SdeVEGFXDUBwLBNMMBCi/F8rlWEDft5hZ/ynJMybqUcZJW6ZLvLRfkBw==", "signing_algo": "Ed25519", "generation_timestamp": 1784675665, "identifier": "83913ef4-7a5e-4574-b646-d1423cc5256a"}</recraft-signature></metadata></svg>