<svg xmlns="http://www.w3.org/2000/svg" height="1024" preserveAspectRatio="none" style="display: block;" version="1.1" viewBox="0 0 2048 2048" width="1024">
<path d="M 889.852 251.519 C 902.569 248.125 922.366 245.124 935.457 243.151 C 1082.19 221.039 1239.86 256.814 1367.41 330.746 C 1523.58 422.237 1637.36 571.629 1684.06 746.495 C 1757.45 1024.57 1610.4 1285.39 1446.25 1499.42 C 1366.98 1601.74 1271.8 1692.55 1178.59 1781.82 C 1165.66 1794.07 1152.93 1806.52 1140.4 1819.18 C 1129.82 1829.77 1116.25 1844.4 1104.27 1852.72 C 1060.38 1883.2 995.136 1885.35 950.613 1854.97 C 933.506 1843.34 920.052 1826.94 904.935 1813.03 C 716.151 1639.38 536.284 1448.91 425.878 1214.43 C 394.601 1150.04 370.01 1083.71 356.885 1013.02 C 340.397 924.219 343.699 832.148 367.422 744.922 C 387.882 669.691 417.613 601.577 461.782 537.072 C 551.446 405.671 683.995 309.522 836.74 265.084 C 853.147 260.38 873.056 254.656 889.852 251.519 z" fill="rgb(255,255,255)" transform="translate(0,0)"></path>
<path d="M 889.852 251.519 C 902.569 248.125 922.366 245.124 935.457 243.151 C 1082.19 221.039 1239.86 256.814 1367.41 330.746 C 1523.58 422.237 1637.36 571.629 1684.06 746.495 C 1757.45 1024.57 1610.4 1285.39 1446.25 1499.42 C 1443.7 1498.63 1441.56 1497.54 1439.16 1499.4 C 1418.89 1515.07 1399.4 1528.78 1377.95 1542.73 C 1312.87 1585.58 1240.04 1615.31 1163.56 1630.23 C 1151.34 1632.68 1123.18 1640.61 1112.21 1637.08 C 1200.41 1553.12 1280.95 1474.49 1353.54 1375.79 C 1440.53 1257.52 1528.4 1103.18 1546.88 955.762 C 1551.44 917.289 1551.06 878.388 1545.72 840.013 C 1522.54 670.739 1421.21 525.168 1269.09 447.078 C 1172.58 396.464 1062.68 377.22 954.719 392.026 C 836.332 408.694 720.743 472.245 640.196 559.899 C 622.741 578.894 611.61 594.54 596.17 615.07 C 593.65 604.435 605.859 578.619 610.056 568.197 C 649.344 470.628 714.348 380.556 795.428 313.513 C 811.807 299.969 830.722 289.054 848.578 277.608 C 856.026 272.814 886.302 257.505 890.197 253.182 L 889.852 251.519 z" fill="rgb(124,58,237)" transform="translate(0,0)"></path>
<path d="M 889.852 251.519 L 890.197 253.182 C 886.302 257.505 856.026 272.814 848.578 277.608 C 830.722 289.054 811.807 299.969 795.428 313.513 C 714.348 380.556 649.344 470.628 610.056 568.197 C 605.859 578.619 593.65 604.435 596.17 615.07 C 575.529 646.739 557.55 677.391 542.394 712.221 C 501.827 805.523 491.404 909.164 512.578 1008.68 C 524.649 1065.86 546.253 1116.66 570.65 1168.97 C 656.273 1352.54 794.524 1507.24 944.258 1641.28 C 972.017 1666.13 998.672 1693.57 1025.9 1719.35 C 1054.49 1691.75 1083.84 1664.83 1112.21 1637.08 C 1123.18 1640.61 1151.34 1632.68 1163.56 1630.23 C 1240.04 1615.31 1312.87 1585.58 1377.95 1542.73 C 1399.4 1528.78 1418.89 1515.07 1439.16 1499.4 C 1441.56 1497.54 1443.7 1498.63 1446.25 1499.42 C 1366.98 1601.74 1271.8 1692.55 1178.59 1781.82 C 1165.66 1794.07 1152.93 1806.52 1140.4 1819.18 C 1129.82 1829.77 1116.25 1844.4 1104.27 1852.72 C 1060.38 1883.2 995.136 1885.35 950.613 1854.97 C 933.506 1843.34 920.052 1826.94 904.935 1813.03 C 716.151 1639.38 536.284 1448.91 425.878 1214.43 C 394.601 1150.04 370.01 1083.71 356.885 1013.02 C 340.397 924.219 343.699 832.148 367.422 744.922 C 387.882 669.691 417.613 601.577 461.782 537.072 C 551.446 405.671 683.995 309.522 836.74 265.084 C 853.147 260.38 873.056 254.656 889.852 251.519 z" fill="rgb(79,70,229)" transform="translate(0,0)"></path>
<path d="M 775.846 727.705 C 819.032 666.072 900.698 621.735 973.813 608.971 C 1055.25 594.973 1138.9 614.1 1206.17 662.098 C 1224.99 675.376 1239.19 688.512 1254.74 704.861 C 1424.91 883.697 1322.59 1175.3 1081.3 1216.26 C 1025.56 1225.72 971.266 1221.5 917.868 1202.6 C 911.928 1200.44 898.04 1194.83 892.853 1191.58 C 872.551 1184.75 836.197 1159.34 819.82 1145.55 C 732.511 1072.06 691.197 948.917 721.917 838.233 C 731.792 802.65 751.46 756.401 775.846 727.705 z" fill="rgb(79,70,229)" transform="translate(0,0)"></path>
<path d="M 775.846 727.705 C 819.032 666.072 900.698 621.735 973.813 608.971 C 1055.25 594.973 1138.9 614.1 1206.17 662.098 C 1224.99 675.376 1239.19 688.512 1254.74 704.861 C 1424.91 883.697 1322.59 1175.3 1081.3 1216.26 C 1025.56 1225.72 971.266 1221.5 917.868 1202.6 C 911.928 1200.44 898.04 1194.83 892.853 1191.58 C 898.607 1190.38 917.462 1196.99 924.776 1197.97 C 1057.5 1215.73 1167.92 1109.68 1185.06 982.704 C 1186.43 972.572 1189.88 944.648 1184.35 936.797 C 1188.9 884.314 1180.39 854.686 1150.71 812.761 C 1151.53 805.929 1149.38 803.661 1145.23 798.103 C 1124.77 770.781 1106.93 750.136 1079.04 730.485 C 985.099 664.301 872.471 662.731 777.279 727.657 C 776.801 727.673 776.324 727.689 775.846 727.705 z" fill="rgb(124,58,237)" transform="translate(0,0)"></path>
<path d="M 1184.35 936.797 C 1177.94 970.693 1164.95 998.874 1140.16 1023.43 C 1109.37 1054.27 1067.47 1071.45 1023.89 1071.11 C 934.536 1070.42 863.31 998.547 865.718 908.705 C 869.588 764.299 1045.14 701.606 1143.8 804.712 L 1150.71 812.761 C 1180.39 854.686 1188.9 884.314 1184.35 936.797 z" fill="rgb(255,255,255)" transform="translate(0,0)"></path>
<metadata><recraft-signature>{"signed_by": "recraft", "signature_b64": "VLptPut8RaNjyHfwlh40IiiM9//I5jqDY9LDZB+1S3hyt0AAMWC+DkA5AkWwD3rR7ur98mpW8N9MRLZD8MxoBw==", "signing_algo": "Ed25519", "generation_timestamp": 1784675628, "identifier": "acf26b6f-6ed0-408b-94ed-23f4c1d55c03"}</recraft-signature></metadata></svg>