<svg xmlns="http://www.w3.org/2000/svg" height="1024" preserveAspectRatio="none" style="display: block;" version="1.1" viewBox="0 0 2048 2048" width="1024">
<path d="M 600.353 278.393 C 602.727 278.165 607.016 278.137 609.458 278.128 C 644.552 277.942 678.237 291.915 702.895 316.886 C 747.978 362.269 742.937 406.819 742.838 464.835 L 859.803 464.9 C 860.359 408.507 853.669 366.445 896.269 320.97 C 920.434 294.682 954.269 279.376 989.967 278.584 C 1044.96 277.063 1090.1 306.158 1113.88 355.296 C 1131.29 391.274 1125.7 426.093 1126.7 464.36 C 1164.3 465.367 1205.66 464.799 1243.46 464.949 C 1244.26 407.262 1237.61 365.982 1281.19 319.685 C 1304.98 294.318 1337.9 279.467 1372.66 278.412 C 1411.09 277.461 1443.15 289.83 1470.76 316.466 C 1481.68 326.992 1490.77 339.258 1497.66 352.764 C 1518.02 392.085 1512.57 421.929 1513.53 464.756 C 1574.28 466.661 1615.23 458.228 1666.07 504.31 C 1696.51 531.481 1714.63 569.837 1716.28 610.607 C 1717.55 638.814 1716.72 672.436 1716.71 701.008 L 1716.72 861.095 L 1716.57 965.052 C 1716.51 983.682 1720.51 1017.31 1708.17 1031.27 C 1697.85 1045.73 1668.72 1037.26 1665.63 1021.77 C 1661.65 1001.78 1663.71 970.231 1663.65 949.778 L 1663.07 714.745 L 1663.18 648.54 C 1663.23 608.403 1664.47 577.56 1634.08 546.143 C 1599.91 510.821 1558.24 516.667 1513.2 516.424 C 1513.25 573.792 1518.17 612.959 1475.55 658.366 C 1412.46 725.565 1299.9 707.76 1258.65 626.058 C 1240.57 590.242 1243.59 554.272 1243.4 515.502 L 1126.16 515.661 C 1126.24 570.352 1130.39 613.931 1088.89 657.21 C 1064.85 682.712 1031.58 697.496 996.542 698.243 C 946.978 699.108 900.837 671.677 876.795 628.574 C 856.964 593.022 860.158 554.697 860.036 515.517 C 822.031 514.746 781.125 515.791 742.882 515.918 C 743.03 571.43 746.523 614.341 704.977 658.413 C 680.914 683.939 644.946 698.286 609.94 698.614 C 574.112 698.694 539.741 684.441 514.483 659.032 C 470.944 615.676 475.533 571.445 475.595 516.06 C 432.319 515.811 392.066 510.372 358.127 542.535 C 332.723 566.609 324.355 592.518 323.144 626.247 L 323.084 1324.94 L 790.181 1325.07 L 938.981 1325.06 C 963.546 1325.07 988.67 1324.7 1013.21 1325.29 C 1020.26 1325.46 1025.52 1327.12 1030.59 1332.01 C 1035.7 1337.01 1038.58 1343.85 1038.55 1351 C 1038.56 1369.74 1025.78 1376.98 1009.04 1377.1 C 983.222 1377.3 957.437 1377.29 931.622 1377.28 L 787.169 1377.35 L 323.092 1376.9 L 322.95 1491.82 C 322.93 1510.77 322.216 1535.75 323.181 1554.27 C 325.315 1596.5 352.186 1633.48 391.69 1648.56 C 417.195 1658.34 452.745 1655.49 480.543 1655.42 L 546.863 1655.4 L 887.49 1655.53 L 976.493 1655.58 C 989.084 1655.52 1003.15 1654.35 1015.47 1655.12 C 1049.58 1657.23 1049.67 1704.38 1016.35 1706.67 C 998.712 1707.89 979.506 1707.13 961.773 1707.16 L 853.581 1707.33 L 508.559 1707.48 C 436.904 1707.44 372.981 1716.6 317.504 1660.79 C 263.486 1606.45 272.231 1546.68 272.14 1477.75 L 272.285 1285.35 L 272.087 647.691 C 272.173 590.877 275.414 552.738 318.992 509.072 C 366.751 461.216 413.817 464.918 475.021 465.079 C 475.082 412.718 469.848 369.546 506.677 326.677 C 532.65 296.445 561.144 281.957 600.353 278.393 z" fill="rgb(79,70,229)" transform="translate(0,0)"></path>
<path d="M 1372.53 331.369 C 1416.08 327.877 1456.71 358.652 1460.87 403.531 C 1463.3 429.684 1462.49 463.358 1461.99 489.859 C 1461.51 515.537 1464.9 556.986 1460.35 581.168 C 1457.82 594.493 1452.13 607.015 1443.75 617.679 C 1429.28 636.086 1410.88 644.646 1388.03 647.421 C 1366.71 649.275 1345.47 643.045 1328.53 629.968 C 1311.86 616.816 1301.1 597.568 1298.64 576.475 C 1296.37 557.573 1297.99 516.22 1297.95 494.832 L 1297.77 436.872 C 1297.74 425.048 1297.15 408.418 1299.15 397.253 C 1301.59 383.909 1307.22 371.352 1315.56 360.646 C 1330.66 341.48 1349.09 334.3 1372.53 331.369 z" fill="rgb(255,255,255)" transform="translate(0,0)"></path>
<path d="M 983.587 331.29 C 1003.83 328.935 1022.08 333.636 1039.19 344.506 C 1057.25 356.044 1069.85 374.421 1074.11 395.426 C 1078.54 416.515 1076.26 474.807 1076.58 498.561 C 1076.81 515.946 1077.27 563.186 1074.93 577.718 C 1072.98 589.802 1068.51 601.342 1061.82 611.591 C 1048.45 631.846 1029.24 642.171 1005.96 646.945 C 959.769 651.175 916.534 620.674 912.961 573.425 C 911.112 548.964 912.629 521.662 912.578 496.882 L 912.358 439.727 C 912.311 427.175 911.81 409.457 913.863 397.417 C 915.912 385.324 920.78 373.884 928.072 364.022 C 941.894 345.241 960.824 334.903 983.587 331.29 z" fill="rgb(255,255,255)" transform="translate(0,0)"></path>
<path d="M 600.404 331.366 C 643.491 328.469 683.636 353.528 689.558 399.314 C 692.984 425.798 690.701 458.451 690.746 485.775 L 690.879 539.233 C 690.903 551.274 691.469 567.655 689.424 579.111 C 687.061 592.237 681.672 604.632 673.685 615.313 C 659.661 633.837 640.906 643.375 618.179 646.431 C 598.023 648.684 575.152 642.842 558.899 630.562 C 541.924 617.65 530.776 598.521 527.91 577.386 C 525.721 560.932 527.05 509.448 527.017 490.317 C 526.984 470.562 525.701 414.329 528.449 398.361 C 530.656 384.97 536.182 372.346 544.523 361.64 C 559.365 342.494 576.965 334.215 600.404 331.366 z" fill="rgb(255,255,255)" transform="translate(0,0)"></path>
<path d="M 1233.08 1087.42 C 1259.38 1086.59 1287.45 1087.16 1313.88 1087.16 L 1458.69 1087.11 L 1538.44 1087.1 C 1556.28 1087.1 1582.07 1086.53 1599.23 1089.55 C 1622.3 1093.67 1643.99 1103.49 1662.3 1118.13 C 1689.73 1140.3 1713.03 1180.22 1715.66 1215.36 C 1717.17 1235.51 1716.62 1261.43 1716.64 1282.12 L 1716.69 1397.62 L 1716.73 1510.85 C 1716.72 1533.89 1717.72 1568.2 1713.76 1589.9 C 1709.38 1613.46 1699.09 1635.52 1683.86 1654.01 C 1657.6 1686 1620.82 1703.83 1580 1707.88 C 1501.77 1709.31 1418.21 1707.82 1339.71 1707.6 C 1317.82 1707.56 1295.93 1707.66 1274.04 1707.88 C 1220.23 1708.31 1184.19 1707.92 1141.16 1669.42 C 1113.79 1645.19 1097.19 1611.07 1095.01 1574.58 C 1093.61 1548.88 1094.37 1520.24 1094.33 1494.33 L 1094.12 1356.88 L 1094.02 1268.84 C 1094.01 1248.25 1092.9 1220.67 1096.82 1201.16 C 1101.86 1175.9 1113.76 1152.52 1131.22 1133.58 C 1158.13 1103.81 1193.49 1089.3 1233.08 1087.42 z" fill="rgb(79,70,229)" transform="translate(0,0)"></path>
<path d="M 1298.89 1249.09 C 1308.57 1248.27 1313.83 1248.68 1322.32 1253.46 C 1394.31 1293.95 1466.94 1333.32 1539.02 1373.63 C 1548.77 1377.41 1553.81 1391.67 1550.59 1401.73 C 1545.94 1416.22 1512.99 1431.11 1501.02 1437.59 C 1486.05 1445.66 1471.23 1453.99 1456.56 1462.58 C 1455.67 1463.13 1454.78 1463.66 1453.88 1464.18 C 1422.45 1482.38 1390.51 1499.91 1358.71 1517.45 C 1344.6 1525.23 1329.59 1535.54 1314.62 1541.15 C 1309.96 1542.89 1305.33 1543.31 1300.53 1541.83 C 1293.52 1539.68 1288.58 1536.04 1285.19 1529.47 C 1283.13 1525.46 1282.92 1521.65 1282.74 1517.23 C 1281.78 1493.54 1281.81 1269.47 1284.12 1263.26 C 1286.68 1256.39 1292.57 1252.16 1298.89 1249.09 z" fill="rgb(255,255,255)" transform="translate(0,0)"></path>
<metadata><recraft-signature>{"signed_by": "recraft", "signature_b64": "NiiEYUMCLdZL/aCiB7mS1A9lJTIM5seR2JMRxYBVGmvLgm4BOSOXWcxGFCAJI0M+tnttzqjVwmuB+8NiwwtXBQ==", "signing_algo": "Ed25519", "generation_timestamp": 1784675531, "identifier": "0c1f09b6-4be5-4b6d-b9df-77a2738b4e74"}</recraft-signature></metadata></svg>